<svg width="92" height="96" viewBox="0 0 92 96" fill="none" xmlns="http://www.w3.org/2000/svg">
    <path
        d="M42.62 0C70.33 0 91.62 19.07 91.62 47.37C91.62 75.67 70.32 95.37 42.62 95.37H11.48C5.22 95.34 0.0100021 91.17 0.0100021 83.87V11.87C0.0100021 4.62 5.22 0 11.48 0H42.62Z"
        fill="#FF6900" />
    <path
        d="M74.5 37.09C74.35 38.28 73.01 38.28 72.41 37.24C70.47 33.96 67.94 33.37 63.92 33.07C60.92 32.92 57.37 33.22 54.09 33.22C54.0019 33.2297 53.9128 33.2218 53.8278 33.1968C53.7428 33.1718 53.6636 33.1302 53.5948 33.0744C53.526 33.0186 53.4689 32.9497 53.4269 32.8717C53.3849 32.7937 53.3587 32.7082 53.35 32.62C53.95 29.79 56.35 24.62 58.86 24.13C60.05 23.98 62.73 23.68 64.22 23.68C71.07 23.68 74.8 31.58 74.5 37.09V37.09ZM35.77 64.09C40.817 65.431 46.0499 65.9344 51.26 65.58C58.0866 65.1192 64.6915 62.968 70.48 59.32C68.24 65 59.75 68.53 51.7 69.42C51.7 69.87 51.55 70.16 51.55 70.61C57.66 70.31 63.47 68.23 66.15 66.44C64.66 71.95 57.21 74.19 50.36 74.63C50.1902 75.0412 49.9896 75.439 49.76 75.82C53.1412 75.869 56.511 75.4174 59.76 74.48C56.62 80.3 43.21 84.32 31.89 79C34.247 74.3734 35.5677 69.2888 35.76 64.1L35.77 64.09ZM73.16 24.43C71.9075 23.2446 70.4333 22.3181 68.8219 21.7038C67.2106 21.0894 65.4938 20.7993 63.77 20.85C59.3 20.85 55.58 22.04 50.06 22.19C46.34 22.34 42.91 14.19 38.44 13.1C36.51 8.79 32.01 8.19 29.36 10.43C26.83 8.94 22.95 9.69 22.81 12.52C19.98 11.63 16.26 13.12 17.89 16.99C10.89 17.14 9.7 23.4 14.31 23.99C8.2 27.42 11.03 33.38 16.1 32.18C17.01 41.12 21.01 52.74 14.46 55.57C13.72 55.87 10.74 56.57 5.07 55.27C3.43 54.82 1.64 54.38 0 53.93V58.55C4.92 59.74 9.83 60.64 13 60.34C21.64 59.45 22.09 52.34 21.64 46.04C21.19 39.74 19.11 32.78 19.85 27.72L19.55 27.42C16.42 30.7 14.34 29.8 14.04 28.76C13.59 26.67 17.32 23.99 19.4 23.1C19.4 22.95 19.55 22.8 19.55 22.65C17.61 22.95 15.23 22.65 15.08 21.31C14.93 19.67 18.36 18.03 22.83 18.48C22.98 18.48 22.98 18.33 23.13 18.33L22.24 17.88C21.05 17.28 20.75 16.24 21.24 15.65C21.578 15.2862 21.9964 15.0064 22.4616 14.8328C22.9269 14.6592 23.4263 14.5966 23.92 14.65C25.3005 14.6674 26.6624 14.9704 27.92 15.54C28.07 15.54 28.07 15.39 28.22 15.39C27.92 15.09 27.48 14.79 27.33 14.5C27.1585 14.2824 27.0729 14.0094 27.0895 13.7329C27.1061 13.4563 27.2237 13.1955 27.42 13C28.0044 12.7126 28.6643 12.6159 29.3066 12.7235C29.9489 12.8312 30.5412 13.1377 31 13.6L31.74 14.34C31.8214 14.3502 31.9041 14.342 31.982 14.316C32.0599 14.29 32.1309 14.247 32.19 14.19C31.9276 13.9196 31.7684 13.5657 31.74 13.19C31.6934 13.073 31.6721 12.9474 31.6777 12.8215C31.6832 12.6957 31.7154 12.5724 31.7721 12.4599C31.8288 12.3474 31.9088 12.2483 32.0067 12.169C32.1046 12.0897 32.2182 12.0321 32.34 12C32.6778 11.9411 33.0254 11.9794 33.3423 12.1104C33.6592 12.2414 33.9324 12.4598 34.13 12.74C34.51 13.3151 34.8063 13.9414 35.01 14.6C31.88 14.9 28.16 16.09 25.92 19.22C24.7207 20.9906 23.9368 23.0092 23.6269 25.1252C23.317 27.2412 23.4889 29.3998 24.13 31.44C25.02 36.06 26.81 40.38 28.45 44.85V45C32.01 55.27 38.89 80.59 5.67 94C7.39261 94.8275 9.26978 95.284 11.18 95.34H14.61C20.3819 92.4303 25.4235 88.2569 29.36 83.13C44.56 89.83 58.36 86.41 64.36 75.38C66.2119 74.2106 67.7761 72.6384 68.9362 70.7806C70.0962 68.9229 70.8222 66.8273 71.06 64.65C72.1518 63.3229 72.922 61.7614 73.3106 60.0874C73.6991 58.4135 73.6955 56.6723 73.3 55C73.15 54.4 72.56 54.4 71.66 54.85C59.3 62.3 48.42 63.49 35.46 59.62C35.1149 55.5634 34.5171 51.5322 33.67 47.55C33.37 42.34 35.01 39.8 44.55 42.93C50.81 44.57 53.64 47.4 55.87 48.93C56.87 49.67 58.25 50.57 59 49.93C59.45 49.63 59.6 48.74 59.6 47.7C59.45 44.87 58.11 40.1 56.92 38.31C59.7479 38.1559 62.5821 38.1559 65.41 38.31C68.99 38.91 69.28 40.84 69.73 41.59C70.73 44.59 76.58 43.82 77.03 41.29C77.92 36.08 78.22 29.22 73.16 24.46V24.43ZM7.01 69.12C4.67904 68.9711 2.34096 68.9711 0.01 69.12V72.25C4.01 71.36 6.56 70.91 6.56 70.91L7.01 69.12Z"
        fill="black" />
    <path
        d="M44.26 36.5C39.05 35.31 33.26 33.82 30.26 29.35C30.26 29.2 30.11 29.2 29.96 29.2C29.9202 29.2 29.8821 29.2158 29.8539 29.2439C29.8258 29.2721 29.81 29.3102 29.81 29.35C29.788 29.6059 29.8401 29.8628 29.96 30.09L29.51 30.24C28.77 29.05 28.51 27.71 29.36 26.66C30.55 25.17 32.79 25.32 34.28 26.21L34.13 26.66C33.4357 26.4794 32.7014 26.5321 32.04 26.81C31.9358 26.8622 31.8442 26.9362 31.7712 27.027C31.6983 27.1178 31.6458 27.2233 31.6173 27.3362C31.5888 27.4492 31.585 27.567 31.6062 27.6815C31.6274 27.7961 31.673 27.9047 31.74 28C34.27 32.77 41.74 33.81 50.51 33.07C50.6466 33.0898 50.7857 33.0825 50.9195 33.0485C51.0533 33.0144 51.179 32.9544 51.2895 32.8717C51.4 32.7891 51.4932 32.6854 51.5636 32.5667C51.6341 32.448 51.6804 32.3166 51.7 32.18C52.3553 29.22 53.7958 26.4911 55.87 24.28C54.4424 24.5136 52.9962 24.614 51.55 24.58C47.08 24.88 44.4 24.28 43.65 23.69L43.8 23.24C44.25 23.39 44.8 23.39 44.8 23.24C44.8 23.09 44.8 22.94 44.65 22.79C43.81 22 39.93 18 39.93 18C39.48 14.57 34.57 14.57 32.63 17.85L32.03 17.7C32.1576 17.0608 32.409 16.4527 32.77 15.91C28.77 16.8 26.36 20.53 25.92 23.91C24.13 39.11 47.22 35.53 53.78 41.64C53.93 41.79 54.23 42.24 54.38 41.94C54.53 41.64 51.7 38.07 44.25 36.43L44.26 36.5ZM36.25 18.26C37.25 17.96 38.93 19 39.68 20.64C40.43 22.28 40.28 23.92 39.23 24.36C38.18 24.8 36.51 23.69 35.76 22C35.61 21.7 35.61 21.55 35.46 21.26H35.61C35.7329 21.3973 35.8913 21.4979 36.0677 21.5509C36.2442 21.6038 36.4319 21.607 36.61 21.56C37.06 21.26 36.91 20.67 36.61 20.07C36.31 19.47 35.87 19.18 35.42 19.18L35.27 19.03C35.4872 18.701 35.7969 18.4436 36.16 18.29"
        fill="white" />
    <path
        d="M70.47 59.29C64.6815 62.938 58.0766 65.0892 51.25 65.55C46.0414 65.8226 40.8211 65.3205 35.76 64.06C35.7579 65.5612 35.6072 67.0585 35.31 68.53C39.658 69.5527 44.1038 70.1026 48.57 70.17C48.27 71.81 46.48 77.77 42.16 81.49C50.16 81.79 57.5 78.66 59.74 74.49C56.5044 75.4896 53.1247 75.9425 49.74 75.83C49.89 75.38 50.19 75.09 50.34 74.64C57.19 74.34 64.64 72.11 66.13 66.45C63.45 68.24 57.64 70.32 51.53 70.62C51.53 70.17 51.68 69.88 51.68 69.43C59.68 68.43 68.22 64.96 70.45 59.3"
        fill="white" />
</svg>